<svg width="31" height="31" viewBox="0 0 31 31" fill="none" xmlns="http://www.w3.org/2000/svg">
<path d="M0.129297 24.5391V27C0.129297 29.1094 5.16836 30.75 11.3793 30.75C17.5902 30.75 22.6293 29.1094 22.6293 27V24.5391C20.1684 26.2383 15.7738 27 11.3793 27C6.92617 27 2.53164 26.2383 0.129297 24.5391ZM18.8793 8.25C25.0902 8.25 30.1293 6.60938 30.1293 4.5C30.1293 2.44922 25.0902 0.75 18.8793 0.75C12.6684 0.75 7.6293 2.44922 7.6293 4.5C7.6293 6.60938 12.6684 8.25 18.8793 8.25ZM0.129297 18.3867V21.375C0.129297 23.4844 5.16836 25.125 11.3793 25.125C17.5902 25.125 22.6293 23.4844 22.6293 21.375V18.3867C20.1684 20.3789 15.7738 21.375 11.3793 21.375C6.92617 21.375 2.53164 20.3789 0.129297 18.3867ZM24.5043 19.0312C27.8441 18.3867 30.1293 17.1562 30.1293 15.75V13.2891C28.723 14.2266 26.7309 14.8711 24.5043 15.2812V19.0312ZM11.3793 10.125C5.16836 10.125 0.129297 12.2344 0.129297 14.8125C0.129297 17.4492 5.16836 19.5 11.3793 19.5C17.5902 19.5 22.6293 17.4492 22.6293 14.8125C22.6293 12.2344 17.5902 10.125 11.3793 10.125ZM24.2113 13.4648C27.727 12.8203 30.1293 11.5898 30.1293 10.125V7.66406C28.0199 9.12891 24.4457 9.89062 20.6957 10.125C22.3949 10.9453 23.684 12.0586 24.2113 13.4648Z" fill="white"/>
</svg>
