<svg width="31" height="27" viewBox="0 0 31 27" fill="none" xmlns="http://www.w3.org/2000/svg">
<path d="M27.1781 6.25H4.85391C4.32656 6.25 3.91641 5.83984 3.91641 5.3125C3.91641 4.84375 4.32656 4.375 4.85391 4.375H27.3539C27.8227 4.375 28.2914 3.96484 28.2914 3.4375C28.2914 1.91406 27.0023 0.625 25.4789 0.625H3.91641C1.80703 0.625 0.166407 2.32422 0.166407 4.375V23.125C0.166407 25.2344 1.80703 26.875 3.91641 26.875H27.1781C28.8188 26.875 30.1664 25.6445 30.1664 24.0625V9.0625C30.1664 7.53906 28.8188 6.25 27.1781 6.25ZM24.5414 18.4375C23.4867 18.4375 22.6664 17.6172 22.6664 16.5625C22.6664 15.5664 23.4867 14.6875 24.5414 14.6875C25.5375 14.6875 26.4164 15.5664 26.4164 16.5625C26.4164 17.6172 25.5375 18.4375 24.5414 18.4375Z" fill="white"/>
</svg>
