<svg width="34" height="27" viewBox="0 0 34 27" fill="none" xmlns="http://www.w3.org/2000/svg">
<path d="M31.0961 0.625H3.02969C1.44766 0.625 0.217188 1.91406 0.217188 3.4375V24.0625C0.217188 25.6445 1.44766 26.875 3.02969 26.875H31.0961C32.6781 26.875 33.9672 25.6445 33.9672 24.0625V3.4375C33.9672 1.91406 32.6781 0.625 31.0961 0.625ZM3.38125 3.4375H30.7445C30.9789 3.4375 31.0961 3.61328 31.0961 3.78906V6.25H3.02969V3.78906C3.02969 3.61328 3.14688 3.4375 3.38125 3.4375ZM30.7445 24.0625H3.38125C3.14688 24.0625 3.02969 23.9453 3.02969 23.7109V13.75H31.0961V23.7109C31.0961 23.9453 30.9789 24.0625 30.7445 24.0625ZM11.4672 18.2031C11.4672 17.8516 11.1156 17.5 10.7641 17.5H6.54531C6.13516 17.5 5.84219 17.8516 5.84219 18.2031V20.5469C5.84219 20.957 6.13516 21.25 6.54531 21.25H10.7641C11.1156 21.25 11.4672 20.957 11.4672 20.5469V18.2031ZM22.7172 18.2031C22.7172 17.8516 22.3656 17.5 22.0141 17.5H14.0453C13.6352 17.5 13.3422 17.8516 13.3422 18.2031V20.5469C13.3422 20.957 13.6352 21.25 14.0453 21.25H22.0141C22.3656 21.25 22.7172 20.957 22.7172 20.5469V18.2031Z" fill="white"/>
</svg>
