<svg width="20" height="21" viewBox="0 0 20 21" fill="none" xmlns="http://www.w3.org/2000/svg">
<path d="M17.5099 4.35L11.5699 0.92C10.5999 0.36 9.39993 0.36 8.41993 0.92L2.48993 4.35C2.0117 4.62727 1.61486 5.02552 1.33927 5.50472C1.06369 5.98392 0.919064 6.52721 0.919926 7.08V13.92C0.919926 15.04 1.51993 16.08 2.48993 16.65L8.42993 20.08C9.39993 20.64 10.5999 20.64 11.5799 20.08L17.5199 16.65C17.9982 16.3727 18.395 15.9745 18.6706 15.4953C18.9462 15.0161 19.0908 14.4728 19.0899 13.92V7.08C19.0856 6.52708 18.9377 5.98477 18.6607 5.5062C18.3837 5.02764 17.9872 4.62922 17.5099 4.35ZM9.24993 6.25C9.24993 5.84 9.58993 5.5 9.99993 5.5C10.4099 5.5 10.7499 5.84 10.7499 6.25V11.5C10.7499 11.91 10.4099 12.25 9.99993 12.25C9.58993 12.25 9.24993 11.91 9.24993 11.5V6.25ZM10.9199 15.13C10.8699 15.25 10.7999 15.36 10.7099 15.46C10.57 15.5999 10.3914 15.6947 10.1971 15.7321C10.0028 15.7696 9.80179 15.7479 9.61993 15.67C9.48993 15.62 9.38993 15.55 9.28993 15.46C9.19993 15.36 9.12993 15.25 9.06993 15.13C9.02176 15.0092 8.99797 14.88 8.99993 14.75C8.99993 14.49 9.09993 14.23 9.28993 14.04C9.38993 13.95 9.48993 13.88 9.61993 13.83C9.98993 13.67 10.4299 13.76 10.7099 14.04C10.7999 14.14 10.8699 14.24 10.9199 14.37C10.9699 14.49 10.9999 14.62 10.9999 14.75C10.9999 14.88 10.9699 15.01 10.9199 15.13Z" fill="#FF0000"/>
</svg>
