<svg width="50" height="50" viewBox="0 0 50 50" fill="none" xmlns="http://www.w3.org/2000/svg">
<path d="M29.0365 5.19003L33.1431 13.4034C33.7031 14.5467 35.1965 15.6434 36.4565 15.8534L43.8998 17.09C48.6598 17.8834 49.7798 21.3367 46.3498 24.7434L40.5631 30.53C39.5831 31.51 39.0465 33.4 39.3498 34.7534L41.0065 41.9167C42.3131 47.5867 39.3031 49.78 34.2865 46.8167L27.3098 42.6867C26.0498 41.94 23.9731 41.94 22.6898 42.6867L15.7131 46.8167C10.7198 49.78 7.68645 47.5634 8.99312 41.9167L10.6498 34.7534C10.9531 33.4 10.4165 31.51 9.43645 30.53L3.64979 24.7434C0.243121 21.3367 1.33979 17.8834 6.09979 17.09L13.5431 15.8534C14.7798 15.6434 16.2731 14.5467 16.8331 13.4034L20.9398 5.19003C23.1798 0.733368 26.8198 0.733368 29.0365 5.19003Z" stroke="#FFAF2B" stroke-width="2.625" stroke-linecap="round" stroke-linejoin="round"/>
</svg>
