<svg width="48" height="48" viewBox="0 0 48 48" fill="none" xmlns="http://www.w3.org/2000/svg">
<path d="M9.39414 33.3334C9.65081 32.1901 9.18414 30.5567 8.36748 29.7401L2.69748 24.0701C0.924143 22.2967 0.224144 20.4067 0.737477 18.7734C1.27414 17.1401 2.93081 16.0201 5.40414 15.6001L12.6841 14.3867C13.7341 14.2001 15.0175 13.2667 15.5075 12.3101L19.5208 4.26008C20.6875 1.95008 22.2741 0.666748 24.0008 0.666748C25.7275 0.666748 27.3141 1.95008 28.4808 4.26008L32.4941 12.3101C32.7975 12.9167 33.4275 13.5001 34.1041 13.8967L8.97414 39.0267C8.64748 39.3534 8.08748 39.0501 8.18081 38.5834L9.39414 33.3334ZM39.6341 29.7447C38.7941 30.5847 38.3275 32.1947 38.6075 33.3381L40.2175 40.3614C40.8941 43.2781 40.4741 45.4714 39.0275 46.5214C38.413 46.9509 37.6769 47.1717 36.9275 47.1514C35.7375 47.1514 34.3375 46.7081 32.7975 45.7981L25.9608 41.7381C24.8875 41.1081 23.1141 41.1081 22.0408 41.7381L15.2041 45.7981C12.6141 47.3147 10.3975 47.5714 8.97414 46.5214C8.43748 46.1247 8.04081 45.5881 7.78414 44.8881L36.1575 16.5147C37.2308 15.4414 38.7475 14.9514 40.2175 15.2081L42.5741 15.6047C45.0475 16.0247 46.7041 17.1447 47.2408 18.7781C47.7541 20.4114 47.0541 22.3014 45.2808 24.0747L39.6341 29.7447Z" fill="#FFAF2B"/>
</svg>
