<svg width="16" height="14" viewBox="0 0 16 14" fill="none" xmlns="http://www.w3.org/2000/svg">
<path d="M5 1.75H0.5M2.75 12.25H0.5M1.25 7H0.5M10.5425 1.9075L11.6 4.0225C11.7425 4.315 12.125 4.5925 12.4475 4.6525L14.36 4.9675C15.5825 5.17 15.8675 6.055 14.99 6.94L13.4975 8.4325C13.25 8.68 13.1075 9.1675 13.19 9.52L13.6175 11.365C13.955 12.82 13.175 13.39 11.8925 12.625L10.1 11.56C9.7775 11.365 9.2375 11.365 8.915 11.56L7.1225 12.625C5.84 13.3825 5.06 12.82 5.3975 11.365L5.825 9.52C5.9075 9.175 5.765 8.6875 5.5175 8.4325L4.025 6.94C3.1475 6.0625 3.4325 5.1775 4.655 4.9675L6.5675 4.6525C6.89 4.6 7.2725 4.315 7.415 4.0225L8.4725 1.9075C9.035 0.76 9.965 0.76 10.5425 1.9075Z" stroke="white" stroke-linecap="round" stroke-linejoin="round"/>
</svg>
