<svg width="20" height="21" viewBox="0 0 20 21" fill="none" xmlns="http://www.w3.org/2000/svg">
<rect x="5" y="6.33331" width="10" height="8.33333" fill="white"/>
<path d="M9.99935 2.16669C5.40768 2.16669 1.66602 5.90835 1.66602 10.5C1.66602 15.0917 5.40768 18.8334 9.99935 18.8334C14.591 18.8334 18.3327 15.0917 18.3327 10.5C18.3327 5.90835 14.591 2.16669 9.99935 2.16669ZM13.9827 8.58335L9.25768 13.3084C9.14049 13.4254 8.98164 13.4911 8.81602 13.4911C8.65039 13.4911 8.49154 13.4254 8.37435 13.3084L6.01602 10.95C5.89978 10.8324 5.8346 10.6737 5.8346 10.5084C5.8346 10.343 5.89978 10.1843 6.01602 10.0667C6.25768 9.82502 6.65768 9.82502 6.89935 10.0667L8.81602 11.9834L13.0993 7.70002C13.341 7.45835 13.741 7.45835 13.9827 7.70002C14.2243 7.94169 14.2243 8.33335 13.9827 8.58335Z" fill="url(#paint0_linear_111_1288)"/>
<defs>
<linearGradient id="paint0_linear_111_1288" x1="2.68851" y1="2.16669" x2="19.299" y2="8.87812" gradientUnits="userSpaceOnUse">
<stop stop-color="#06D1F8"/>
<stop offset="1" stop-color="#DE179E"/>
</linearGradient>
</defs>
</svg>
