<svg width="18" height="18" viewBox="0 0 18 18" fill="none" xmlns="http://www.w3.org/2000/svg">
<path d="M13.5 14.145H12.93C12.33 14.145 11.76 14.3775 11.34 14.7975L10.0575 16.065C9.4725 16.6425 8.52 16.6425 7.935 16.065L6.6525 14.7975C6.2325 14.3775 5.655 14.145 5.0625 14.145H4.5C3.255 14.145 2.25 13.1475 2.25 11.9175V3.73501C2.25 2.50501 3.255 1.50751 4.5 1.50751H13.5C14.745 1.50751 15.75 2.50501 15.75 3.73501V11.9175C15.75 13.14 14.745 14.145 13.5 14.145Z" stroke="white" stroke-miterlimit="10" stroke-linecap="round" stroke-linejoin="round"/>
<path d="M12 11.745C12 10.395 10.6575 9.3 9 9.3C7.3425 9.3 6 10.395 6 11.745M9 7.5C9.22949 7.5 9.45672 7.4548 9.66874 7.36698C9.88076 7.27916 10.0734 7.15044 10.2357 6.98817C10.3979 6.8259 10.5267 6.63326 10.6145 6.42124C10.7023 6.20923 10.7475 5.98199 10.7475 5.7525C10.7475 5.52302 10.7023 5.29578 10.6145 5.08377C10.5267 4.87175 10.3979 4.67911 10.2357 4.51684C10.0734 4.35457 9.88076 4.22585 9.66874 4.13803C9.45672 4.05021 9.22949 4.005 9 4.005C8.53653 4.005 8.09205 4.18912 7.76433 4.51684C7.43661 4.84456 7.2525 5.28904 7.2525 5.7525C7.2525 6.21597 7.43661 6.66045 7.76433 6.98817C8.09205 7.31589 8.53653 7.5 9 7.5Z" stroke="white" stroke-linecap="round" stroke-linejoin="round"/>
</svg>
