<svg width="1182" height="1099" viewBox="0 0 1182 1099" fill="none" xmlns="http://www.w3.org/2000/svg">
<g opacity="0.1">
<g filter="url(#filter0_f_3_2316)">
<path d="M389.111 814.008C-1.38867 814.008 127.611 506.008 146.111 463.008C260.945 393.342 537.911 253.408 727.111 251.008C963.611 248.008 930.611 1072.01 853.611 758.508C776.611 445.008 779.611 814.008 389.111 814.008Z" fill="#05D2F7"/>
</g>
<g filter="url(#filter1_f_3_2316)">
<path d="M413.032 456.822C506.147 625.49 373.331 928.227 35.5165 692.525C-302.298 456.822 311.254 257.159 413.032 456.822Z" fill="#7A8AE0"/>
</g>
<g filter="url(#filter2_f_3_2316)">
<path d="M5.58963 654.733C88.67 737.106 227.492 711.084 286.518 687.777C558.893 596.568 272.396 398.934 30.7299 232.581C-210.936 66.2276 -175.508 222.83 -226.218 463.686C-276.929 704.542 -98.2608 551.767 5.58963 654.733Z" fill="#D61B9B"/>
</g>
</g>
<defs>
<filter id="filter0_f_3_2316" x="-160" y="-20" width="1341.64" height="1120.67" filterUnits="userSpaceOnUse" color-interpolation-filters="sRGB">
<feFlood flood-opacity="0" result="BackgroundImageFix"/>
<feBlend mode="normal" in="SourceGraphic" in2="BackgroundImageFix" result="shape"/>
<feGaussianBlur stdDeviation="135.5" result="effect1_foregroundBlur_3_2316"/>
</filter>
<filter id="filter1_f_3_2316" x="-291" y="149" width="959" height="856" filterUnits="userSpaceOnUse" color-interpolation-filters="sRGB">
<feFlood flood-opacity="0" result="BackgroundImageFix"/>
<feBlend mode="normal" in="SourceGraphic" in2="BackgroundImageFix" result="shape"/>
<feGaussianBlur stdDeviation="113" result="effect1_foregroundBlur_3_2316"/>
</filter>
<filter id="filter2_f_3_2316" x="-440.09" y="-41.4887" width="1042.3" height="957.418" filterUnits="userSpaceOnUse" color-interpolation-filters="sRGB">
<feFlood flood-opacity="0" result="BackgroundImageFix"/>
<feBlend mode="normal" in="SourceGraphic" in2="BackgroundImageFix" result="shape"/>
<feGaussianBlur stdDeviation="102.5" result="effect1_foregroundBlur_3_2316"/>
</filter>
</defs>
</svg>
